<svg width="49" height="44" fill="none" xmlns="http://www.w3.org/2000/svg"><path fill-rule="evenodd" clip-rule="evenodd" d="M4.12213 32.8771c.48332-3.0919-.86894-6.2613-2.32402-9.1774-.18982-.3801-.3807-.7559-.56907-1.1268-.398399-.7845-.785558-1.5468-1.127682-2.2805-.1028328-.2223-.1285411-.4757-.0719829-.7187l.9203569-3.8571c.087408-.3723.365058-.6721.730118-.7859 1.96925-.6204 8.2575-2.854 8.82305-6.13723.0103-.06722.0463-.12409.0926-.17063l5.3627-5.19624c.1338-.12925.3497-.11374.468.03103.5039.63596 1.9075 2.05264 3.995 1.35464l-.6479-.65664c-.1285-.12409-.1233-.33091.0052-.45499l2.4526-2.32668c.0565-.05687.1336-.0879.2159-.0879h7.476c.2674 0 .4164.3154.2468.52221l-2.4012 2.93161c-.1182.14994-.0874.3671.072.47051.4796.31374 1.4769.96861 2.5314 1.66106.8224.53999 1.6796 1.10283 2.3532 1.54458.7816.51187 1.8357.1913 2.1903-.67732.396-.96686.7661-2.47145.7713-4.71022 0-.0362.0052-.07756.0205-.11375L36.746.215794c.0976-.2481785.437-.2740304.5707-.041363.5091.889309 1.4191 2.776499 1.4191 4.979079l.4987-.36192c.1389-.10341.3342-.07239.4371.06204l1.09 1.42703c.0463.06204.0668.14477.0617.22233-.072.77038-.2725 5.01531 3.4347 6.71631.0668.031.1234.0827.1542.15l4.5247 9.0998c.0206.0466.0308.0931.0308.1448v3.8313c0 .5843-.2468 1.1375-.6839 1.5253-1.7738 1.5821-6.4116 5.9718-6.6944 9.012-.0154.1603-.1491.2843-.3136.2843h-7.9747c-.0514 0-.1028-.0103-.1491-.0361-.5142-.2792-3.229-3.8571-3.7791-7.3265-.0412-.2585-.3651-.3567-.545-.1603l-1.7843 1.9855c-.1645.1861-.401.2895-.6478.2895-.2726 0-.5039-.1965-.5501-.4653-.2057-1.21-1.1209-4.3742-4.9566-4.3742-2.0567 0-5.2599.7963-8.2318 1.6959 0 0-3.29067 1.0341-5.72268 4.3431-.08226.1138-.21595.181-.35991.181H4.56946c-.27765 0-.48846-.2482-.44733-.5223zM40.5199 43.2024c-.1696.667-.946.9669-1.5168.5791-1.0488-.7135-2.6325-1.9596-4.0671-3.7899-.2107-.2689-.0205-.667.324-.667h5.7073c.2724 0 .4678.2534.401.517l-.8484 3.3608z" fill="#0E8784"/></svg>