<svg width="52" height="50" fill="none" xmlns="http://www.w3.org/2000/svg"><path fill-rule="evenodd" clip-rule="evenodd" d="M28.2744 5.09355V.104774L22.8308.0440674 20.79 3.43035l2.4948 2.49563 4.9896-.83243zm-5.8212 5.82125l-6.6528-6.65368-3.3264 3.32723 5.6732 5.05285 4.306-1.7264zm6.9946 3.891L26.1264 12.39l.6037-2.71683 5.7023-.42079 7.4844 5.82042-1.6632 4.9896-2.4948 1.664-2.4948-1.664v-2.4948l-2.4948-3.3264-1.3214.5646zm19.6166 32.6994h-1.6632c-.4592 0-.8316-.3723-.8316-.8316s.3724-.8316.8316-.8316h1.6632c.4593 0 .8316.3723.8316.8316s-.3723.8316-.8316.8316zm0-11.6424h1.6633c.4592 0 .8316-.3723.8316-.8316s-.3724-.8316-.8316-.8316h-1.6633c-.4592 0-.8316.3723-.8316.8316s.3724.8316.8316.8316zm-9.9792 0l4.9896-3.3264V29.21l-4.9896-4.9896-3.3264 3.3264-3.3264-3.3264-3.3264 2.4948 3.3264 4.158-2.4948 4.9896-2.4948-4.158-5.8212-2.4948 3.3264-6.6528 2.4948-3.3264-5.8212-3.3264-3.3264 3.3264L7.48441 8.41995.831601 15.9044l1.954259 8.0515L0 26.7152l2.4948 7.4844 19.9584 9.9792 2.4948-4.158 4.9896 3.3264L33.264 50l4.158-6.6528h6.6528l.8316-4.9896-5.8212-2.4948z" fill="#0E8784"/></svg>