<svg width="71" height="72" fill="none" xmlns="http://www.w3.org/2000/svg"><path fill-rule="evenodd" clip-rule="evenodd" d="M58.0481 13.1037c7.2596 7.362 11.7902 16.6411 12.7576 26.1226.9895 9.6571-1.8238 18.3781-7.912 24.5477C57.5999 69.1425 50.4112 72 42.3706 72c-1.2114 0-2.4406-.0675-3.6875-.198-9.3497-.981-18.4997-5.5755-25.7593-12.9376C-2.19016 43.5373-4.36451 20.8122 8.07807 8.19415 20.5118-4.42828 42.9297-2.21877 58.0481 13.1037zM32.5284 40.0363c5.8308 1.62 11.2001 3.1365 16.1522 6.9706 3.8833 3.0075 6.6493 6.8295 9.4463 10.6944 1.2877 1.7793 2.5819 3.5676 3.9947 5.2898-1.6329-14.3326-8.7373-26.6447-23.0968-30.8702-.2239-.0657-.447-.1312-.6695-.1964-6.2783-1.8409-12.0115-3.5219-17.2356-7.8766-3.3597-2.8026-5.8332-6.2812-8.3207-9.7797-1.2711-1.7876-2.5458-3.5804-3.94438-5.29091C10.5586 23.5347 17.8493 35.9548 32.5284 40.0363z" fill="#FDD6BA"/></svg>