<svg width="236" height="26" fill="none" xmlns="http://www.w3.org/2000/svg"><path fill-rule="evenodd" clip-rule="evenodd" d="M75.6512 23.3035c0 .5069-.2553.7603-.766.7603h-8.9969c-.2173 0-.3939-.0634-.5297-.1901-.1358-.1267-.2037-.3058-.2037-.5372 0-.1983.0461-.3581.1385-.4793.0924-.1212.2363-.2204.4319-.2975l.7009-.2149c.1738-.0551.3096-.1598.4074-.3141.0978-.1542.1467-.3746.1467-.6611v-9.5537c0-.1543-.038-.2838-.1141-.3885-.076-.1046-.2173-.2011-.4237-.2892l-.9454-.3141c-.2499-.1212-.4292-.2507-.5378-.3884-.1087-.1377-.163-.3058-.163-.50413 0-.19834.0679-.36088.2037-.4876l.0534-.04455c.1301-.09702.2998-.14553.5089-.14553h1.4302l-.0112-.09659c-.0305-.19319-.1069-.37862-.2292-.55631-.163-.23691-.3477-.50413-.5541-.80165-.2065-.29752-.3912-.65289-.5542-1.06611-.163-.41323-.2445-.92287-.2445-1.52893 0-1.44353.489-2.5978 1.4669-3.46281C67.8441.876477 69.235.44397 71.0387.44397c1.1626 0 2.127.187328 2.893.56198.766.37466 1.3392.87328 1.7195 1.49587.3803.62259.5705 1.30303.5705 2.04132 0 .87053-.2255 1.52342-.6764 1.95868-.451.43526-1.0296.65289-1.7358.65289-.7824 0-1.4126-.25344-1.8907-.76033-.4781-.50688-.7171-1.17906-.7171-2.01653V2.90678c0-.38568-.0761-.66942-.2282-.85124-.1521-.18182-.3858-.27273-.7009-.27273-.402 0-.7062.13774-.9127.41323-.2064.27548-.3097.67217-.3097 1.19008 0 .52892.1223 1.02479.3668 1.4876.2444.46281.546.89532.9045 1.29752.3586.40221.7172.78788 1.0758 1.15703.3585.36914.66.73278.9045 1.09091l.0697.10735c.132.21455.22.4281.264.64066l.0149.0867h2.4141c.2499 0 .4427.05234.5786.15702.1358.10468.2037.26722.2037.4876 0 .33059-.1413.60059-.4238.80989-.2825.2094-.728.3141-1.3365.3141h-1.1572V21.32c0 .3085.0462.5455.1386.7107.0923.1653.2417.2645.4482.2976l1.4017.2148c.2499.0331.4346.113.5541.2397.1195.1267.1793.3003.1793.5207zm-32.0921.3801c-.9779.4739-2.1188.7108-3.4227.7108-1.38 0-2.6159-.292-3.708-.8761-1.092-.584-1.9531-1.4297-2.5833-2.5371-.6302-1.1075-.9453-2.4546-.9453-4.0414 0-1.5316.3287-2.9008.9861-4.1074.6573-1.2066 1.5728-2.1598 2.7463-2.85951 1.1735-.69972 2.5426-1.04958 4.1072-1.04958 1.3365 0 2.4639.19835 3.382.59504.9182.39669 1.619.93385 2.1025 1.61155.4836.6777.7253 1.4353.7253 2.2727 0 .8816-.2526 1.573-.7579 2.0744-.5052.5014-1.1925.7521-2.0617.7521-.891 0-1.5674-.2562-2.0292-.7686s-.6927-1.2149-.6927-2.1074v-1.0579c0-.5399-.0978-.9476-.2934-1.2231-.1956-.2755-.4726-.4133-.8312-.4133-.3586 0-.6818.1461-.9698.4381-.2879.292-.5107.73-.6682 1.314-.1576.584-.2364 1.3058-.2364 2.1653 0 1.2342.182 2.27.546 3.1074.364.8375.8612 1.4656 1.4914 1.8843.6302.4188 1.3473.6281 2.1514.6281.8041 0 1.4777-.1184 2.021-.3553.5433-.2369.9616-.6364 1.255-1.1984.163-.1543.2907-.2534.383-.2975.0924-.0441.182-.0661.269-.0661.1086.011.1983.0633.2689.157.0706.0937.1005.2397.0896.438-.0869 1.0799-.4183 2.0331-.9942 2.8595-.5759.8265-1.3528 1.4766-2.3307 1.9504zm16.5676-.3305c-1.2224.6721-2.6431 1.0082-4.2621 1.0082-1.5755 0-2.9582-.3278-4.148-.9834-1.1898-.6557-2.1161-1.562-2.7789-2.7191-.6628-1.157-.9942-2.4958-.9942-4.0165 0-1.4545.3477-2.7631 1.0431-3.9256.6954-1.1625 1.657-2.0854 2.8848-2.7686 1.2279-.68319 2.6404-1.02479 4.2377-1.02479 1.5864 0 2.9718.33058 4.1562.99173 1.1843.66116 2.1079 1.57576 2.7707 2.74376.6628 1.1681.9943 2.518.9943 4.0496 0 1.4546-.345 2.7576-1.035 3.9091s-1.6462 2.0634-2.8686 2.7356zm-3.0234-.7108c-.3368.0661-.6655-.0826-.9861-.4463-.3205-.3636-.6247-.9752-.9127-1.8347-.2879-.8595-.5623-1.989-.8231-3.3884-.2499-1.3995-.3911-2.551-.4237-3.4546-.0326-.9035.0326-1.5867.1956-2.0495.1629-.4628.4129-.7328.7497-.81.3368-.0661.6655.0827.9861.4463.3205.3637.6275.9752.9208 1.8347.2934.8595.5705 1.989.8313 3.3885.2607 1.3994.4047 2.5537.4319 3.4628.0272.9091-.0435 1.595-.2119 2.0578-.1684.4628-.421.7273-.7579.7934zm29.1583 1.4215c.5107 0 .7661-.2534.7661-.7603 0-.2204-.0598-.394-.1793-.5207-.1195-.1267-.3042-.2066-.5542-.2397l-1.4016-.2148c-.2065-.0331-.3559-.1323-.4483-.2976-.0923-.1652-.1385-.4022-.1385-.7107V11.0225h1.1572c.6085 0 1.054-.1047 1.3365-.3141.2825-.2093.4238-.4793.4238-.80989 0-.22038-.0679-.38292-.2038-.4876-.1358-.10468-.3287-.15702-.5786-.15702h-2.414l-.0149-.0867c-.044-.21256-.132-.42611-.264-.64066l-.0697-.10735c-.2445-.35813-.546-.72177-.9046-1.09091-.3585-.36915-.7171-.75482-1.0757-1.15703-.3586-.4022-.6601-.83471-.9046-1.29752-.2444-.46281-.3667-.95868-.3667-1.4876 0-.51791.1032-.9146.3097-1.19008.2064-.27549.5107-.41323.9127-.41323.3151 0 .5487.09091.7009.27273.1521.18182.2281.46556.2281.85124v1.47107c0 .83747.2391 1.50965.7172 2.01653.4781.50689 1.1083.76033 1.8906.76033.7063 0 1.2849-.21763 1.7358-.65289.451-.43526.6764-1.08815.6764-1.95868 0-.73829-.1901-1.41873-.5704-2.04132-.3803-.62259-.9535-1.12121-1.7195-1.49587-.7661-.374652-1.7304-.56198-2.893-.56198-1.8038 0-3.1946.432507-4.1725 1.29752-.9779.86501-1.4669 2.01928-1.4669 3.46281 0 .60606.0815 1.1157.2445 1.52893.163.41322.3477.76859.5542 1.06611.2064.29752.3911.56474.5541.80165.1222.17769.1986.36312.2292.55631l.0112.09659h-1.4302c-.2092 0-.3788.04851-.5089.14553l-.0534.04455c-.1358.12672-.2037.28926-.2037.4876 0 .19833.0543.36643.163.50413.1086.1377.2879.2672.5378.3884l.9453.3141c.2065.0881.3477.1846.4238.2892.0761.1047.1141.2342.1141.3885v9.5537c0 .2865-.0489.5069-.1467.6611-.0978.1543-.2336.259-.4075.3141l-.7008.2149c-.1956.0771-.3396.1763-.4319.2975-.0924.1212-.1386.281-.1386.4793 0 .2314.0679.4105.2038.5372.1358.1267.3124.1901.5297.1901h8.9968zm12.7619-.4793c-1.054.5399-2.2709.8099-3.6509.8099-1.5212 0-2.8577-.3168-4.0095-.9504-1.1517-.6336-2.0509-1.5207-2.6974-2.6612-.6465-1.1405-.9698-2.46-.9698-3.9587 0-1.5757.3124-2.9559.9372-4.1405.6248-1.1845 1.5294-2.1074 2.7137-2.76856 1.1844-.66115 2.6078-.99173 4.2703-.99173 1.4125 0 2.6295.27824 3.6509.83471 1.021.55648 1.806 1.31128 2.355 2.26448.549.9531.823 2.0138.823 3.1818 0 .5069-.136.9063-.407 1.1983l-.065.0648c-.268.2489-.637.3733-1.109.3733h-7.4505l.016.0762c.1977.9075.5354 1.6341 1.0131 2.18.8149.9311 1.9015 1.3967 3.2597 1.3967.8693 0 1.638-.1984 2.3067-.5951.668-.3967 1.116-.9476 1.344-1.6529.131-.1432.247-.2396.351-.2892.103-.0496.193-.0744.269-.0744.108 0 .201.0441.277.1322.076.0882.114.2369.114.4463 0 1.0799-.294 2.0689-.88 2.9669-.587.8981-1.408 1.6171-2.4615 2.1571zm-5.7791-8.0688c-.0155-.2536-.0232-.5172-.0232-.7907 0-1.0359.076-1.8513.2282-2.4463.1521-.5951.3477-1.0165.5867-1.2645.2391-.2479.5053-.3719.7986-.3719.3803 0 .7362.3251 1.0676.9752.3314.6502.4971 1.7301.4971 3.2397 0 .4628-.2064.6942-.6193.6942h-2.5336l-.0021-.0357zm21.3606 8.0688c-1.054.5399-2.271.8099-3.651.8099-1.521 0-2.858-.3168-4.009-.9504-1.152-.6336-2.051-1.5207-2.698-2.6612-.646-1.1405-.97-2.46-.97-3.9587 0-1.5757.313-2.9559.938-4.1405.624-1.1845 1.529-2.1074 2.713-2.76856 1.185-.66115 2.608-.99173 4.271-.99173 1.412 0 2.629.27824 3.651.83471 1.021.55648 1.806 1.31128 2.355 2.26448.548.9531.823 2.0138.823 3.1818 0 .5069-.136.9063-.408 1.1983l-.065.0648c-.267.2489-.637.3733-1.108.3733h-7.451l.016.0762c.198.9075.535 1.6341 1.013 2.18.815.9311 1.902 1.3967 3.26 1.3967.869 0 1.638-.1984 2.306-.5951.668-.3967 1.117-.9476 1.345-1.6529.13-.1432.247-.2396.35-.2892.103-.0496.193-.0744.269-.0744.109 0 .201.0441.277.1322.076.0882.114.2369.114.4463 0 1.0799-.293 2.0689-.88 2.9669-.587.8981-1.407 1.6171-2.461 2.1571zm-5.779-8.0688c-.016-.2536-.023-.5172-.023-.7907 0-1.0359.076-1.8513.228-2.4463.152-.5951.348-1.0165.587-1.2645.239-.2479.505-.3719.798-.3719.381 0 .736.3251 1.068.9752.331.6502.497 1.7301.497 3.2397 0 .4628-.206.6942-.619.6942h-2.534l-.002-.0357zm19.674 8.3415c-.136.1377-.334.2066-.595.2066h-8.15c-.239 0-.426-.0661-.562-.1983-.136-.1323-.204-.3141-.204-.5455 0-.1763.041-.3223.123-.438.081-.1157.192-.2232.334-.3223l.375-.1488c.141-.0661.239-.1708.293-.314.054-.1433.081-.3802.081-.7108v-8.3967c0-.2644-.029-.4545-.089-.5702-.06-.1157-.16-.2066-.302-.2728l-.423-.0495c-.153-.0882-.264-.1819-.335-.281-.07-.0992-.106-.2259-.106-.3802 0-.1763.055-.3333.163-.4711.109-.1377.294-.2562.555-.3553l4.628-1.33888c.272-.1102.5-.18733.685-.23141.185-.04408.342-.06611.473-.06611.184 0 .323.06611.415.19834l.03.04796c.076.13821.129.35914.158.66279l.124 2.56841.028-.0948c.055-.1789.116-.3506.182-.5149.396-.9863.921-1.719 1.573-2.19838.652-.47934 1.363-.71901 2.135-.71901.934 0 1.651.31405 2.151.94215.5.62814.75 1.58124.75 2.85954 0 1.2672-.261 2.1983-.782 2.7933-.522.5951-1.196.8926-2.021.8926-.805 0-1.399-.2038-1.785-.6116-.386-.4077-.59-.9862-.611-1.7355l-.017-.6612c-.011-.2534-.059-.4517-.146-.595-.087-.1432-.229-.2149-.424-.2149-.196 0-.367.102-.513.3058-.147.2039-.259.5152-.335.9339-.076.4187-.114.9532-.114 1.6033v5.8182c0 .3085.049.5537.147.7355.098.1818.25.2948.456.3389l1.223.2479c.228.0331.391.1185.489.2562.097.1377.146.3003.146.4876 0 .2204-.068.3995-.203.5372zm13.03.5041c1.619 0 3.04-.3361 4.263-1.0082 1.222-.6722 2.178-1.5841 2.868-2.7356.69-1.1515 1.035-2.4545 1.035-3.9091 0-1.5316-.331-2.8815-.994-4.0496-.663-1.168-1.587-2.0826-2.771-2.74376-1.184-.66115-2.57-.99173-4.156-.99173-1.597 0-3.01.3416-4.238 1.02479-1.228.6832-2.189 1.6061-2.885 2.7686-.695 1.1625-1.043 2.4711-1.043 3.9256 0 1.5207.332 2.8595.995 4.0165.662 1.1571 1.589 2.0634 2.778 2.7191 1.19.6556 2.573.9834 4.148.9834zm.253-2.1653c.321.3637.649.5124.986.4463.337-.0661.59-.3306.758-.7934.168-.4628.239-1.1487.212-2.0578-.027-.9091-.171-2.0634-.432-3.4628-.261-1.3995-.538-2.529-.831-3.3885-.294-.8595-.601-1.471-.921-1.8347-.321-.3636-.649-.5124-.986-.4463-.337.0772-.587.3472-.75.81-.163.4628-.228 1.146-.195 2.0495.032.9036.173 2.0551.423 3.4546.261 1.3994.535 2.5289.823 3.3884.288.8595.593 1.4711.913 1.8347zm20.838 2.1984c.913 0 1.662-.1681 2.249-.5041.587-.3361 1.024-.7356 1.312-1.1984.288-.4628.432-.887.432-1.2727 0-.1653-.035-.3031-.106-.4132-.07-.1102-.166-.1653-.285-.1653-.054 0-.103.011-.147.033-.043.0221-.081.0551-.114.0992-.054.1983-.138.3361-.252.4132-.115.0772-.237.1157-.367.1157-.185 0-.323-.0633-.416-.1901-.092-.1267-.138-.2947-.138-.5041v-7.3058c0-1.4545-.492-2.5812-1.475-3.3801-.984-.79894-2.524-1.19839-4.621-1.19839-1.63 0-2.991.20385-4.083.61157-1.092.40771-1.912.92842-2.461 1.56202-.549.6336-.823 1.281-.823 1.9421 0 .7052.204 1.2424.611 1.6116.408.3691.997.5537 1.769.5537.945 0 1.689-.2562 2.232-.7686.544-.5124.815-1.1763.815-1.9917v-1.2562c0-.3086.095-.5482.286-.719.19-.1708.426-.2562.709-.2562.304 0 .546.1129.725.3388.179.2259.269.5317.269.9174l-.001 4.8181-.086-.0188c-.262-.0506-.566-.0796-.911-.0868l-.176-.0018c-2.336 0-4.077.3967-5.223 1.1901-1.147.7934-1.72 1.9008-1.72 3.3223 0 1.0799.394 1.9669 1.182 2.6612.788.6942 1.833 1.0413 3.137 1.0413.978 0 1.891-.2011 2.738-.6033.636-.3017 1.153-.6979 1.55-1.1886l.022-.0286.024.074c.126.3572.355.6773.689.9602l.103.0838c.603.4683 1.453.7025 2.551.7025zm-5.615-3.1157c.266.3581.617.5372 1.051.5372l.094-.0033c.185-.0129.364-.0645.537-.1549l.053-.0301v-4.2415l-.081-.0248c-.184-.0496-.402-.0744-.652-.0744-.423 0-.763.1984-1.018.5951-.256.3967-.383.9807-.383 1.7521 0 .7382.133 1.2865.399 1.6446zm17.105 3.1653c1.935 0 3.418-.4463 4.45-1.3389 1.032-.8925 1.548-2.1102 1.548-3.6529 0-.9366-.173-1.7575-.521-2.4628-.348-.7052-.956-1.3306-1.826-1.876-.869-.5455-2.091-1.0606-3.667-1.5455-.587-.1873-1.04-.3774-1.361-.5702-.32-.1928-.54-.3995-.66-.6198-.119-.2204-.179-.4573-.179-.7108 0-.3746.136-.6777.407-.9091.272-.2314.674-.3471 1.206-.3471.739 0 1.437.2479 2.095.7438.657.4959 1.383 1.3444 2.176 2.5455.206.2534.413.438.619.5537.206.1157.402.1515.587.1074.228-.0661.369-.2176.424-.4545.054-.2369.043-.5758-.033-1.0165l-.424-3.04137c-.043-.31956-.125-.54546-.244-.67769-.12-.13223-.277-.19834-.473-.19834-.174 0-.391.0606-.652.18181-.261.12122-.519.24518-.774.3719-.255.12673-.448.19009-.579.19009-.119 0-.296-.06612-.529-.19835-.234-.13223-.563-.26446-.986-.39669-.424-.13224-.973-.19835-1.647-.19835-1.119 0-2.127.20385-3.023.61157-.896.40771-1.603.98902-2.119 1.74382-.516.7548-.774 1.6556-.774 2.7025 0 .9256.193 1.7355.579 2.4297.385.6942.975 1.2893 1.768 1.7851.793.4959 1.793.8981 2.999 1.2066.782.2094 1.383.4215 1.801.6364.418.2149.706.449.864.7025.157.2534.236.5344.236.843 0 .4077-.136.7438-.407 1.0082-.272.2645-.685.3967-1.239.3967-.522 0-1.019-.1129-1.491-.3388-.473-.2259-.959-.6143-1.459-1.1653-.5-.551-1.06-1.3058-1.679-2.2645-.185-.2534-.394-.4297-.627-.5289-.234-.0992-.47-.0937-.709.0165-.229.0882-.375.2755-.44.562-.066.2865-.049.6391.048 1.0579l.506 3.2892c.076.3306.184.551.326.6612.141.1102.293.1653.456.1653.185 0 .41-.0606.676-.1818l.799-.3637c.266-.1212.481-.1818.644-.1818.163 0 .377.0606.644.1818.266.1212.614.2424 1.043.3637.429.1212.97.1818 1.621.1818zm15.452-.6199c-.717.3802-1.565.5703-2.543.5703-1.652 0-2.893-.4022-3.724-1.2066-.831-.8044-1.247-2.0717-1.247-3.8017V11.915c0-.2314-.022-.4077-.065-.5289-.044-.1212-.152-.2204-.326-.2975l-.766-.2479c-.185-.0882-.304-.1956-.359-.3224-.054-.1267-.081-.2837-.081-.471 0-.23143.081-.42151.244-.57027.163-.14876.364-.22314.603-.22314h.799c.098 0 .201-.03857.31-.11571.108-.07713.255-.2314.44-.46281l3.015-2.52892c.217-.26446.434-.46557.652-.60331.217-.13774.434-.20661.652-.20661.25 0 .445.07714.586.23141l.045.05468c.112.15455.167.37874.167.67259v2.95868h3.407c.239 0 .424.05234.554.15702.13.10469.196.26722.196.48761 0 .30858-.136.57298-.408.79338l-.061.0455c-.273.1901-.688.2851-1.243.2851h-2.445v7.5372c0 .8264.139 1.438.416 1.8347.277.3967.682.595 1.214.595.228 0 .44-.0496.636-.1487.195-.0992.372-.2287.53-.3885.157-.1597.307-.3388.448-.5372.141-.1983.277-.3966.407-.595.109-.0441.204-.0248.286.0579.081.0826.116.2506.105.5041-.076.8925-.323 1.6777-.741 2.3554-.418.6776-.986 1.2066-1.703 1.5867zm10.675.5703c1.38 0 2.597-.27 3.651-.8099 1.054-.54 1.875-1.259 2.461-2.1571.587-.898.88-1.887.88-2.9669 0-.2094-.038-.3581-.114-.4463-.076-.0881-.168-.1322-.277-.1322-.076 0-.165.0248-.269.0744-.103.0496-.22.146-.35.2892-.228.7053-.677 1.2562-1.345 1.6529-.668.3967-1.437.5951-2.306.5951-1.358 0-2.445-.4656-3.26-1.3967-.477-.5459-.815-1.2725-1.013-2.18l-.016-.0762h7.451c.471 0 .841-.1244 1.109-.3733l.064-.0648c.272-.292.408-.6914.408-1.1983 0-1.168-.274-2.2287-.823-3.1818-.549-.9532-1.334-1.708-2.355-2.26448-1.022-.55647-2.239-.83471-3.651-.83471-1.663 0-3.086.33058-4.27.99173-1.185.66116-2.089 1.58406-2.714 2.76856-.625 1.1846-.937 2.5648-.937 4.1405 0 1.4987.323 2.8182.969 3.9587.647 1.1405 1.546 2.0276 2.698 2.6612 1.152.6336 2.488.9504 4.009.9504zm-2.151-9.6694c0 .2735.008.5371.023.7907l.002.0357h2.534c.413 0 .619-.2314.619-.6942 0-1.5096-.166-2.5895-.497-3.2397-.331-.6501-.687-.9752-1.068-.9752-.293 0-.559.124-.798.3719-.239.248-.435.6694-.587 1.2645-.152.595-.228 1.4104-.228 2.4463zm19.102 9.3388c.261 0 .459-.0689.595-.2066.136-.1377.204-.3168.204-.5372 0-.1873-.049-.3499-.147-.4876-.098-.1377-.261-.2231-.489-.2562l-1.223-.2479c-.206-.0441-.358-.1571-.456-.3389-.098-.1818-.147-.427-.147-.7355v-5.8182c0-.6501.038-1.1846.115-1.6033.076-.4187.187-.73.334-.9339.146-.2038.317-.3058.513-.3058s.337.0717.424.2149c.087.1433.136.3416.147.595l.016.6612c.022.7493.225 1.3278.611 1.7355.386.4078.981.6116 1.785.6116.826 0 1.499-.2975 2.021-.8926.521-.595.782-1.5261.782-2.7933 0-1.2783-.25-2.2314-.75-2.85954-.499-.6281-1.217-.94215-2.151-.94215-.772 0-1.483.23967-2.135.71901-.652.47938-1.176 1.21208-1.573 2.19838-.066.1643-.127.336-.182.5149l-.028.0953-.124-2.56891c-.029-.30365-.082-.52458-.158-.66279l-.03-.04796c-.092-.13223-.23-.19834-.415-.19834-.131 0-.288.02203-.473.06611s-.413.12121-.684.23141l-4.629 1.33888c-.261.0991-.446.2176-.554.3553-.109.1378-.163.2948-.163.4711 0 .1543.035.281.106.3802.07.0991.182.1928.334.281l.423.0495c.142.0662.242.1571.302.2728s.09.3058.09.5702v8.3967c0 .3306-.028.5675-.082.7108-.054.1432-.152.2479-.293.314l-.375.1488c-.141.0991-.253.2066-.334.3223-.082.1157-.122.2617-.122.438 0 .2314.067.4132.203.5455.136.1322.324.1983.563.1983h8.149zm17.162-.9587c-1.032.8926-2.515 1.3389-4.449 1.3389-.652 0-1.193-.0606-1.622-.1818-.429-.1213-.777-.2425-1.043-.3637-.266-.1212-.481-.1818-.644-.1818-.163 0-.377.0606-.644.1818l-.798.3637c-.266.1212-.492.1818-.677.1818-.163 0-.315-.0551-.456-.1653-.141-.1102-.25-.3306-.326-.6612l-.505-3.2892c-.098-.4188-.114-.7714-.049-1.0579.065-.2865.212-.4738.44-.562.239-.1102.475-.1157.709-.0165.234.0992.443.2755.627.5289.62.9587 1.179 1.7135 1.679 2.2645.5.551.986.9394 1.459 1.1653.473.2259.97.3388 1.491.3388.554 0 .967-.1322 1.239-.3967.272-.2644.407-.6005.407-1.0082 0-.3086-.078-.5896-.236-.843-.157-.2535-.445-.4876-.864-.7025-.418-.2149-1.018-.427-1.801-.6364-1.206-.3085-2.205-.7107-2.999-1.2066-.793-.4958-1.382-1.0909-1.768-1.7851-.386-.6942-.579-1.5041-.579-2.4297 0-1.0469.258-1.9477.775-2.7025.516-.7548 1.222-1.33611 2.118-1.74382.897-.40772 1.905-.61157 3.024-.61157.673 0 1.222.06611 1.646.19835.424.13223.752.26446.986.39669.234.13223.41.19835.53.19835.13 0 .323-.06336.578-.19009.256-.12672.514-.25068.774-.3719.261-.12121.479-.18181.652-.18181.196 0 .354.06611.473.19834.12.13223.201.35813.245.67769l.423 3.04137c.076.4407.087.7796.033 1.0165-.054.2369-.196.3884-.424.4545-.185.0441-.38.0083-.587-.1074-.206-.1157-.412-.3003-.619-.5537-.793-1.2011-1.518-2.0496-2.176-2.5455-.657-.4959-1.355-.7438-2.094-.7438-.533 0-.935.1157-1.206.3471-.272.2314-.408.5345-.408.9091 0 .2535.06.4904.18.7108.119.2203.339.427.66.6198.32.1928.774.3829 1.361.5702 1.575.4849 2.798 1 3.667 1.5455.869.5454 1.478 1.1708 1.825 1.876.348.7053.522 1.5262.522 2.4628 0 1.5427-.516 2.7604-1.549 3.6529z" fill="#fff"/><path fill-rule="evenodd" clip-rule="evenodd" d="M14.3891 4.44665C10.8747.935096 5.66533.429588 2.77639 3.32163-.114045 6.21218.391444 11.4218 3.89987 14.9348c.93597.936 2.01445 1.6515 3.15292 2.1645.3735-2.1705 1.44447-4.257 3.07041-5.97-.53846-.1921-1.09045-.3541-1.66644-.5116-3.41092-.93597-5.10588-3.78151-5.50187-7.11756.32752.39385.62571.80696.92303 1.21886.57686.79917 1.15041 1.59376 1.9284 2.23419 1.21025.99654 2.53868 1.38123 3.99201 1.80208.05611.01625.11241.03255.1689.04895.68847.1995 1.28697.495 1.83597.84001 1.443-1.05452 3.0704-1.75653 4.7504-2.04603-.5115-1.13852-1.2285-2.21554-2.1645-3.15155zM8.44626 17.9334c.2235-2.1736 1.27648-4.2991 2.96394-5.9866 3.5144-3.51159 8.7238-4.0186 11.6127-1.1251 2.8905 2.8906 2.3865 8.1002-1.1264 11.6132-1.6875 1.6875-3.813 2.7406-5.9864 2.9656-.2895.0285-.576.0435-.8565.0435-1.8689 0-3.5384-.6555-4.7684-1.8856-1.41595-1.4145-2.06993-3.4125-1.83894-5.625zm5.14034 1.7835c1.152-.879 2.3985-1.227 3.7545-1.5975 3.4109-.9361 5.1043-3.7816 5.5018-7.1177-.3247.3917-.6207.802-.9159 1.2111-.5786.802-1.1538 1.5993-1.9355 2.242-1.214.9982-2.5455 1.3835-4.0053 1.806l-.1556.045c-3.3374.969-4.9874 3.7906-5.3684 7.0741.3288-.395.63-.8051.9296-1.213.6503-.8855 1.2932-1.7609 2.1948-2.45z" fill="#0E8784"/></svg>