<svg width="72" height="72" fill="none" xmlns="http://www.w3.org/2000/svg"><path fill-rule="evenodd" clip-rule="evenodd" d="M36 23.9808c.0994.0127.2001.0192.3016.0192.5747 0 1.1408-.0069 1.6984-.0204V39H66.7111C69.6124 39 72 36.63 72 33.75v-7.5c0-2.88-2.3876-5.25-5.2889-5.25H54.5796C63.0488 17.7084 67 12.3266 67 8.06725 67 4.34664 64.0499.002967 55.7306 0 44.9929 0 38.9117 7.61477 35.9997 14.5904 33.0874 7.6144 27.007 0 16.2725 0 7.95319 0 5 4.34421 5 8.06528 5 12.3253 8.95154 17.708 17.4214 21H5.28889C2.38756 21 0 23.37 0 26.25v7.5C0 36.63 2.38756 39 5.28889 39H34V23.9796c.5576.0135 1.1237.0204 1.6984.0204.1015 0 .2022-.0065.3016-.0192zm3.1749-4.4966c1.3845-4.9281 5.5595-15.03074 16.5557-15.03074 3.2233 0 6.6646.94647 6.6646 3.61083 0 1.78909-1.5564 4.59291-5.9248 7.10001-3.1496 1.8069-8.6201 3.9283-17.2955 4.3199zM34 44H6v22.8421C6 69.6716 8.39135 72 11.2973 72H34V44zm32 22.8421V44H38v28h22.7027C63.6087 72 66 69.6716 66 66.8421zM16.2725 4.45104c-3.2234 0-6.66773.94955-6.66773 3.61424 0 3.78932 6.85493 10.69432 23.21723 11.42132-1.3814-4.9317-5.5564-15.03556-16.5495-15.03556z" fill="#FDD6BA"/></svg>