<svg width="72" height="50" fill="none" xmlns="http://www.w3.org/2000/svg"><path fill-rule="evenodd" clip-rule="evenodd" d="M4.84615 0H9v4.16667H4.84615V0zM0 19.4444h4.15385v4.1667H0v-4.1667zM16.4335 4.22917h-3.3061V0h35.3341v35.3969c-2.164 1.8643-3.5618 4.5987-3.6514 7.6587H27.05c-.1653-5.6466-4.787-10.19-10.4483-10.19-5.6614 0-10.28306 4.5432-10.44839 10.19H0V29.1199h11.7695c1.5036 0 2.7269-1.2284 2.7269-2.7385 0-1.5102-1.2233-2.7389-2.7269-2.7389H8.34462v-4.229H26.2659c1.5036 0 2.7269-1.2287 2.7269-2.7389 0-1.5102-1.2233-2.7388-2.7269-2.7388H0V9.70674h16.6017c1.5036 0 2.7267-1.22853 2.7267-2.73872 0-1.45901-1.3528-2.73885-2.8949-2.73885zM49.1538 43.75c0-3.4462 2.7952-6.25 6.2308-6.25 3.4356 0 6.2308 2.8038 6.2308 6.25S58.8202 50 55.3846 50c-3.4356 0-6.2308-2.8038-6.2308-6.25zm4.1306 2.1067h4.2005v-4.2134h-4.2005v4.2134zm-.669-40.99559h8.4468l9.5532 14.58329h-18V4.86111zm0 18.74999v9.5643c.836-.2126 1.7112-.3261 2.6129-.3261 5.7193 0 10.3883 4.5506 10.5554 10.2063H72V23.6111H52.6154zm-36 13.8889c-3.4356 0-6.2308 2.8038-6.2308 6.25S13.1798 50 16.6154 50c3.4356 0 6.2308-2.8038 6.2308-6.25s-2.7952-6.25-6.2308-6.25zm2.1002 8.3567h-4.2005v-4.2134h4.2005v4.2134z" fill="#FDD6BA"/></svg>