<svg width="42" height="51" fill="none" xmlns="http://www.w3.org/2000/svg"><path fill-rule="evenodd" clip-rule="evenodd" d="M6.01896 6.96845l-.00001-.00001c-.0399-.02212-.08025-.0445-.12449-.07399h.00834c.00273-.00455.00606-.00941.0096-.01456l.00001-.00002c.00724-.01055.01535-.02236.02094-.03542.01111-.00416.02292-.00763.03472-.01111h.00002c.0118-.00347.0236-.00694.03471-.01111.06529.04664.08799.09579.11184.14744.01166.02525.0236.05111.04093.07756 2.46389 1.54722 3.84167.71667 4.80553-1.44166.1334-.31111.2611-.64723.3861-1.00556 1.1385-3.34377 3.8169-3.38447 6.4073-3.42384.829-.0126 1.649-.02506 2.4066-.1456 1.8278-.286115 1.2445 1.41666.4528 2.23611-.2613.27396-.5684.50462-.8865.7435-.801.60157-1.6714 1.25531-2.0552 2.78427.7388 0 1.446.00463 2.1315.00911 1.5055.00984 2.9065.019 4.3074-.02299 2.6195-.07778 3.0639.875 1.6195 2.99444-.3164.46719-.5723.97779-.8277 1.48729-.3186.6357-.6363 1.2697-1.0695 1.8155-1.5139 1.8944-1.4806 3.1889 1.0027 4.0722.625.2222 1.4306.7778 1.5889 1.3417.7538 2.6711 2.5585 4.6784 4.3579 6.6798 1.9937 2.2174 3.9809 4.4276 4.5255 7.5257.0253.1426.0426.2746.0584.3955.0867.6613.1299.9906 1.2054.899 1.8334-.1722 4.0028-.1945 4.5139 2.1444.4917 2.2306-1.1 3.65-2.8027 4.8278-.232.1585-.4088.3909-.6062.6505l-.0001.0001v.0001c-.0863.1134-.1766.2321-.2771.3521.1571.6853.751.7035 1.307.7205.555.017 1.0722.0328 1.0791.71.0111 1.1278-1.1972 1.6528-2.0333 1.9111-4.2639 1.325-8.7556 1.775-13.1278 1.6862-2.3339-.0516-4.3768.6944-6.4086 1.4363-1.4747.5384-2.9436 1.0747-4.5136 1.3025-.2299.0344-.4557.0857-.6858.1381-.8321.1895-1.7219.392-3.07532-.1519 1.60492-.5829 2.66512-1.7646 3.73322-2.9549 1.5938-1.7764 3.205-3.5721 6.6696-3.4257-.6065-.252-1.0937-.4575-1.5028-.6302l-.003-.0012-.0002-.0001h-.0001c-.7976-.3366-1.2986-.548-1.8106-.7352-2.3306-.8416-2.6417-2.4777-.9028-4.3722.9806-1.0639 1.6584-2.2055-.5639-2.6667-1.2216-.2517-.9301-.7744-.6068-1.3539.2331-.4181.4828-.8658.1929-1.2627-.3722-.5111.85-.6556 1.5556-.5667 2.0889.2695 5.0417.6306 4.2306-2.4222-.0659-.2467-.1284-.5247-.1949-.821l-.0001-.0003v-.0001c-.461-2.0524-1.1202-4.9867-4.4939-4.5425-3.6556.4806-4.8028-.425-2.5167-3.7417-.465-.208-1.1084.0323-1.7251.2627-1.17.4371-2.24414.8384-1.8221-1.9266.025-.175-.31947-.5944-.38891-.575-.26576.0842-.53733.3476-.80729.6094h-.00001c-.585.5674-1.16242 1.1274-1.65659-.1594-.35261-.9173.24412-1.1598.94456-1.4445.71215-.2895 1.53151-.6226 1.56933-1.7527-.05514-.1789-.46637-.1829-.90905-.1872-.73935-.0072-1.56642-.0153-.96873-.8406 1.98956-2.745.4674-3.8987-1.23565-5.1894l-.00005-.00004-.00016-.00013c-.17531-.13286-.35253-.26718-.52803-.40483-.2302-.17926-.14638-.44951-.05674-.73851.04232-.13645.08593-.27707.09841-.41427 0-.00416-.00139-.00972-.00278-.01527v-.00001c-.00139-.00555-.00278-.01111-.00278-.01527.00833-.13056-.00556-.26389-.08611-.38334-.04599-.03162-.08827-.05506-.13105-.07878h-.00001zM1.4778 27.1861c-.561115-.0916-1.200004-.6805-1.138893-1.5278.122223-1.5555 4.863893-4.725 6.969443-4.6 1.93914.1068 2.56448 1.4246 3.15225 2.6633.2382.502.4703.9911.7811 1.3812-.0917 1.8333-1.2 2.8694-2.39168 2.875-2.34.0291-4.69766-.3555-7.02731-.7355l-.34491-.0562zM8.19169 1.87779c-2.625.7-4.13889 2.09444-3.95278 4.91389-1.75838.17295-1.24832.88809-.77822 1.5472.07351.10306.14604.20476.20877.3028.13572-.30876.37193-.59886.61563-.89816.15534-.19078.31371-.38528.45104-.59073.15415-.03989.30872-.08061.46338-.12135l.00019-.00006c.24382-.06423.48787-.12853.73087-.1897.23679-.52202.64387-.9634 1.05677-1.41109.84167-.91258 1.70751-1.85137 1.20435-3.5528zM3.57502 9.42501c.42222-.14722.30833-.44167.09167-.78333-.10834.23889-.17223.48889-.09167.78333z" fill="#0E8784"/></svg>